<svg width="90" height="90" viewBox="0 0 90 90" fill="none" xmlns="http://www.w3.org/2000/svg">
<g clip-path="url(#clip0_302_13)">
<path d="M90 45C90 20.1472 69.8528 0 45 0C20.1472 0 0 20.1472 0 45C0 69.8528 20.1472 90 45 90C69.8528 90 90 69.8528 90 45Z" fill="url(#paint0_linear_302_13)"/>
<path fill-rule="evenodd" clip-rule="evenodd" d="M30.149 57.2688L30.8296 56.7283C31.431 56.2508 31.8646 55.9047 32.1333 55.688C32.2706 55.5773 32.3542 55.5089 32.3943 55.4752C32.3976 55.4725 32.4004 55.4701 32.4027 55.4681C32.3891 55.4802 32.3617 55.505 32.3314 55.5351C32.3183 55.5482 32.2937 55.5733 32.2641 55.6064C32.2449 55.6279 32.1741 55.7072 32.1001 55.8208C32.0663 55.8725 31.9841 56.0026 31.9172 56.1862C31.8769 56.2966 31.6781 56.844 31.9436 57.4885C32.0152 57.6624 32.1046 57.8099 32.2045 57.935C32.1229 57.9998 32.0377 58.0674 31.949 58.1379V64.8816H58.6052V57.5007H44.2682C45.044 56.9034 45.7933 56.3033 46.5159 55.7007C49.5188 53.1961 52.0619 50.6455 54.1448 48.0489C56.729 44.7921 58.0211 41.2698 58.0211 37.482C58.0211 34.0128 56.9414 31.1985 54.782 29.0391C52.658 26.8797 49.4898 25.8 45.2771 25.8C42.8345 25.8 40.6043 26.2779 38.5865 27.2337C36.6041 28.1895 34.9935 29.6763 33.7544 31.6941C32.7993 33.2954 32.2009 35.2088 31.959 37.4343C31.8962 38.0132 31.8574 38.6132 31.8428 39.2343H40.6043C40.6043 37.3935 40.976 35.9775 41.7194 34.9863C42.4982 33.9597 43.5602 33.4464 44.9054 33.4464C46.2507 33.4464 47.2596 33.8535 47.9321 34.6677C48.6047 35.4819 48.941 36.6147 48.941 38.0661C48.941 39.9777 48.2507 41.9424 46.8701 43.9602C45.4895 45.978 43.7903 47.9073 41.7725 49.7481C40.0646 51.3341 37.8049 53.301 34.9933 55.6489C34.5415 56.0262 34.0755 56.4134 33.5951 56.8104C33.6113 56.7996 33.6123 56.8008 33.598 56.8138C33.5981 56.8137 33.5978 56.814 33.598 56.8138C33.5856 56.8252 33.5618 56.8455 33.5274 56.8741L32.4484 55.423C35.9059 52.5653 38.6017 50.2361 40.5477 48.4291L40.5535 48.4237L40.5594 48.4183C42.4864 46.6604 44.0909 44.8345 45.3846 42.9437C46.6173 41.1421 47.141 39.5257 47.141 38.0661C47.141 36.8774 46.8658 36.2032 46.5444 35.8141C46.3037 35.5226 45.8729 35.2464 44.9054 35.2464C44.0963 35.2464 43.5773 35.5175 43.1565 36.0703C42.7372 36.6318 42.4043 37.6063 42.4043 39.2343V41.0343H30L30.0433 39.192C30.1194 35.958 30.8074 33.121 32.2085 30.772L32.2145 30.7621L32.2205 30.7523C33.6257 28.4638 35.488 26.7293 37.8048 25.6124L37.816 25.6069C40.0966 24.5267 42.5934 24 45.2771 24C49.7769 24 53.4834 25.1554 56.0601 27.7716C58.6004 30.3148 59.8211 33.6088 59.8211 37.482C59.8211 41.7163 58.3654 45.6257 55.5549 49.1677L55.5489 49.1752C53.7671 51.3964 51.6738 53.5708 49.2756 55.7007H60.4052V66.6816H30.149V57.2688ZM32.4119 55.4602C32.4122 55.4599 32.4094 55.4625 32.4027 55.4681C32.4083 55.4632 32.4116 55.4604 32.4119 55.4602Z" fill="white"/>
</g>
<defs>
<linearGradient id="paint0_linear_302_13" x1="-18.9356" y1="21.0484" x2="114.201" y2="26.2517" gradientUnits="userSpaceOnUse">
<stop stop-color="#010052"/>
<stop offset="1" stop-color="#5957FF"/>
</linearGradient>
<clipPath id="clip0_302_13">
<rect width="90" height="90" fill="white"/>
</clipPath>
</defs>
</svg>
