<svg width="90" height="90" viewBox="0 0 90 90" fill="none" xmlns="http://www.w3.org/2000/svg">
<g clip-path="url(#clip0_302_17)">
<path d="M90 45C90 20.1472 69.8528 0 45 0C20.1472 0 0 20.1472 0 45C0 69.8528 20.1472 90 45 90C69.8528 90 90 69.8528 90 45Z" fill="url(#paint0_linear_302_17)"/>
<path fill-rule="evenodd" clip-rule="evenodd" d="M30.4709 38.4413L30.5407 36.5741C30.6964 32.4083 32.0815 28.9766 34.8683 26.5277C37.6182 24.1111 41.2523 23 45.5614 23C48.4164 23 50.9658 23.494 53.1448 24.5616C55.3193 25.6097 57.035 27.0843 58.1952 29.012C59.3691 30.9037 59.9461 33.0202 59.9461 35.3138C59.9461 37.9561 59.2807 40.2878 57.8091 42.1606L57.8026 42.169L57.796 42.1772C57.23 42.8804 56.6146 43.5016 55.9494 44.0343C56.9343 44.7085 57.7962 45.5294 58.5241 46.4999C59.9798 48.4409 60.6364 50.8486 60.6364 53.5802C60.6364 56.0654 60.0519 58.339 58.8402 60.3468C57.6508 62.3413 55.9053 63.8739 53.6887 64.9633C51.4752 66.0688 48.9051 66.5843 46.0393 66.5843C41.4975 66.5843 37.657 65.4642 34.7031 63.0437L34.6936 63.0359C31.6774 60.5295 30.2161 56.8278 30.0625 52.2601L30 50.3996H42.4358L42.4757 52.1587C42.5034 53.3785 42.8359 54.1573 43.314 54.6822C43.7253 55.1034 44.4277 55.4441 45.7207 55.4441C46.7558 55.4441 47.2903 55.1624 47.6046 54.833L47.6059 54.8317C48.0124 54.4067 48.2749 53.817 48.2749 52.8899C48.2749 51.5992 47.8843 51.0313 47.4192 50.7162L47.3914 50.6974L47.3643 50.6775C46.7738 50.2444 45.536 49.8578 43.2781 49.8578H39.7789V38.8769H43.2781C44.8995 38.8769 46.017 38.6043 46.7576 38.2009C47.1839 37.9584 47.5315 37.5377 47.5315 36.4289C47.5315 35.4951 47.2814 35.0127 46.9967 34.7281C46.7027 34.434 46.2307 34.1933 45.349 34.1933C44.3997 34.1933 43.9672 34.4592 43.7238 34.7445C43.3439 35.2386 43.08 35.8955 43.0002 36.7995L42.8553 38.4413H30.4709ZM42.3223 33.6146C42.9948 32.8004 44.0037 32.3933 45.349 32.3933C46.588 32.3933 47.5614 32.7473 48.2695 33.4553C48.9775 34.1633 49.3315 35.1545 49.3315 36.4289C49.3315 38.0219 48.7651 39.137 47.6323 39.7742C46.5349 40.376 45.0835 40.6769 43.2781 40.6769H41.5789V48.0578H43.2781C45.6498 48.0578 47.3668 48.4472 48.4288 49.226C49.5261 49.9694 50.0749 51.1907 50.0749 52.8899C50.0749 54.1997 49.6854 55.2617 48.9067 56.0759C48.1633 56.8547 47.1013 57.2441 45.7207 57.2441C44.0923 57.2441 42.8533 56.8016 42.0037 55.9166C41.1541 54.9962 40.7115 53.7572 40.6762 52.1996H31.8616C31.8825 52.8228 31.9294 53.4229 32.0023 53.9996C32.4219 57.3212 33.7025 59.8718 35.8441 61.6514C38.3929 63.74 41.7913 64.7843 46.0393 64.7843C48.6943 64.7843 50.9776 64.3064 52.8892 63.3506C54.8361 62.3948 56.3053 61.085 57.2965 59.4212C58.3231 57.722 58.8364 55.775 58.8364 53.5802C58.8364 51.1376 58.2523 49.1375 57.0841 47.5799C56.3311 46.576 55.4018 45.756 54.296 45.1197C53.7092 44.7821 53.0729 44.4963 52.3869 44.2622C52.3597 44.2529 52.3324 44.2437 52.3051 44.2346V44.0222C52.3318 44.0131 52.3585 44.0038 52.3851 43.9945C53.0355 43.7652 53.6516 43.4548 54.2336 43.0637C55.0155 42.5381 55.7355 41.8664 56.3938 41.0486C57.562 39.5618 58.1461 37.6502 58.1461 35.3138C58.1461 33.3314 57.6504 31.5437 56.6593 29.9507C55.7035 28.3577 54.2698 27.101 52.3582 26.1806C50.4819 25.2602 48.2164 24.8 45.5614 24.8C41.5611 24.8 38.3929 25.8266 36.0565 27.8798C34.1046 29.595 32.9187 31.9155 32.4986 34.8413C32.4158 35.4178 32.3628 36.0178 32.3395 36.6413H41.2072C41.3134 35.4377 41.6851 34.4288 42.3223 33.6146Z" fill="white"/>
</g>
<defs>
<linearGradient id="paint0_linear_302_17" x1="-18.9356" y1="21.0484" x2="114.201" y2="26.2517" gradientUnits="userSpaceOnUse">
<stop stop-color="#010052"/>
<stop offset="1" stop-color="#5957FF"/>
</linearGradient>
<clipPath id="clip0_302_17">
<rect width="90" height="90" fill="white"/>
</clipPath>
</defs>
</svg>
