<svg width="90" height="90" viewBox="0 0 90 90" fill="none" xmlns="http://www.w3.org/2000/svg">
<g clip-path="url(#clip0_302_25)">
<path d="M90 45C90 20.1472 69.8528 0 45 0C20.1472 0 0 20.1472 0 45C0 69.8528 20.1472 90 45 90C69.8528 90 90 69.8528 90 45Z" fill="url(#paint0_linear_302_25)"/>
<path d="M57.4025 32.54V33.44H58.3025V32.54H57.4025ZM39.0857 32.54V31.64H38.1857V32.54H39.0857ZM39.0857 40.7768H38.1857V43.1721L39.763 41.3695L39.0857 40.7768ZM42.4265 38.6456L42.7248 39.4948L42.7312 39.4925L42.7376 39.4901L42.4265 38.6456ZM54.0041 39.6824L53.5048 40.4312L53.5103 40.4349L53.5158 40.4384L54.0041 39.6824ZM55.6745 61.8584L56.3205 62.4851L56.3251 62.4803L55.6745 61.8584ZM37.1273 64.1048L36.7302 64.9125L36.7414 64.9179L37.1273 64.1048ZM29.9273 52.7V51.8H29L29.0276 52.7268L29.9273 52.7ZM39.5465 52.7L40.4369 52.569L40.3238 51.8H39.5465V52.7ZM41.1017 55.9256L40.4653 56.562L40.4724 56.5691L40.4796 56.5759L41.1017 55.9256ZM48.5321 55.5224L47.8269 54.9631L47.8209 54.9707L47.815 54.9784L48.5321 55.5224ZM41.4473 46.4216L41.9305 47.1809L41.9425 47.1733L41.9542 47.1652L41.4473 46.4216ZM39.7193 48.5528V49.4528H40.3591L40.5693 48.8484L39.7193 48.5528ZM30.1577 48.5528H29.2577V49.4528H30.1577V48.5528ZM30.1577 23.9V23H29.2577V23.9H30.1577ZM57.4025 23.9H58.3025V23H57.4025V23.9ZM57.4025 31.64H39.0857V33.44H57.4025V31.64ZM38.1857 32.54V40.7768H39.9857V32.54H38.1857ZM39.763 41.3695C40.4463 40.5885 41.417 39.9542 42.7248 39.4948L42.1281 37.7964C40.5943 38.3354 39.3379 39.1219 38.4083 40.1841L39.763 41.3695ZM42.7376 39.4901C44.0889 38.9923 45.557 38.7392 47.1497 38.7392V36.9392C45.3631 36.9392 43.6824 37.2237 42.1153 37.8011L42.7376 39.4901ZM47.1497 38.7392C49.7397 38.7392 51.8405 39.3217 53.5048 40.4312L54.5033 38.9335C52.4813 37.5856 50.0125 36.9392 47.1497 36.9392V38.7392ZM53.5158 40.4384C55.208 41.5314 56.4548 43.0049 57.2681 44.8791L58.9192 44.1625C57.9662 41.9662 56.4865 40.2143 54.4923 38.9264L53.5158 40.4384ZM57.2681 44.8791C58.0972 46.7896 58.5185 48.9123 58.5185 51.26H60.3185C60.3185 48.6925 59.8566 46.3224 58.9192 44.1625L57.2681 44.8791ZM58.5185 51.26C58.5185 55.5397 57.3243 58.8298 55.0239 61.2365L56.3251 62.4803C59.0165 59.6646 60.3185 55.8891 60.3185 51.26H58.5185ZM55.0285 61.2317C52.7442 63.5864 49.4894 64.8176 45.1337 64.8176V66.6176C49.8403 66.6176 53.6129 65.276 56.3205 62.4851L55.0285 61.2317ZM45.1337 64.8176C42.1657 64.8176 39.6341 64.2983 37.5131 63.2917L36.7414 64.9179C39.1516 66.0617 41.9577 66.6176 45.1337 66.6176V64.8176ZM37.5243 63.2971C35.3944 62.2502 33.7799 60.8224 32.6481 59.0184L31.1233 59.9751C32.4491 62.088 34.3288 63.7323 36.7302 64.9125L37.5243 63.2971ZM32.6481 59.0184C31.5137 57.2106 30.8994 55.1045 30.8269 52.6732L29.0276 52.7268C29.1087 55.4411 29.8001 57.8662 31.1233 59.9751L32.6481 59.0184ZM29.9273 53.6H39.5465V51.8H29.9273V53.6ZM38.656 52.8309C38.8731 54.3069 39.4693 55.566 40.4653 56.562L41.7381 55.2892C41.0444 54.5956 40.6039 53.7043 40.4369 52.569L38.656 52.8309ZM40.4796 56.5759C41.5662 57.6154 42.9987 58.0928 44.6729 58.0928V56.2928C43.3518 56.2928 42.4034 55.9253 41.7238 55.2753L40.4796 56.5759ZM44.6729 58.0928C46.6085 58.0928 48.1939 57.4572 49.2491 56.0664L47.815 54.9784C47.1806 55.8148 46.1932 56.2928 44.6729 56.2928V58.0928ZM49.2372 56.0817C50.2799 54.767 50.7569 53.0726 50.7569 51.0872H48.9569C48.9569 52.7882 48.5507 54.0505 47.8269 54.9631L49.2372 56.0817ZM50.7569 51.0872C50.7569 49.1667 50.2532 47.5509 49.1237 46.3744L47.8252 47.6208C48.5389 48.3643 48.9569 49.4749 48.9569 51.0872H50.7569ZM49.1237 46.3744C47.9933 45.1968 46.4487 44.6576 44.6153 44.6576V46.4576C46.0842 46.4576 47.1124 46.8784 47.8252 47.6208L49.1237 46.3744ZM44.6153 44.6576C43.2108 44.6576 41.9668 44.978 40.9403 45.678L41.9542 47.1652C42.6173 46.7132 43.4853 46.4576 44.6153 46.4576V44.6576ZM40.9641 45.6623C39.9613 46.3005 39.2479 47.1684 38.8692 48.2572L40.5693 48.8484C40.805 48.1707 41.2437 47.618 41.9305 47.1809L40.9641 45.6623ZM39.7193 47.6528H30.1577V49.4528H39.7193V47.6528ZM31.0577 48.5528V23.9H29.2577V48.5528H31.0577ZM30.1577 24.8H57.4025V23H30.1577V24.8ZM56.5025 23.9V32.54H58.3025V23.9H56.5025Z" fill="white"/>
</g>
<defs>
<linearGradient id="paint0_linear_302_25" x1="-18.9356" y1="21.0484" x2="114.201" y2="26.2517" gradientUnits="userSpaceOnUse">
<stop stop-color="#010052"/>
<stop offset="1" stop-color="#5957FF"/>
</linearGradient>
<clipPath id="clip0_302_25">
<rect width="90" height="90" fill="white"/>
</clipPath>
</defs>
</svg>
