<svg width="90" height="90" viewBox="0 0 90 90" fill="none" xmlns="http://www.w3.org/2000/svg">
<g clip-path="url(#clip0_302_29)">
<path d="M90 45C90 20.1472 69.8528 0 45 0C20.1472 0 0 20.1472 0 45C0 69.8528 20.1472 90 45 90C69.8528 90 90 69.8528 90 45Z" fill="url(#paint0_linear_302_29)"/>
<path fill-rule="evenodd" clip-rule="evenodd" d="M39.5305 68.1151L39.5244 68.1126C37.2696 67.1686 35.2739 65.7081 33.5373 63.7672L33.5293 63.7583L33.5214 63.7492C31.8106 61.7791 30.4777 59.3122 29.4898 56.3977L29.4871 56.3899C28.4813 53.3725 28 49.8205 28 45.7688C28 41.4827 28.5048 37.7031 29.5527 34.4599L29.5561 34.4492L29.5597 34.4386C30.6375 31.254 32.0574 28.5619 33.8511 26.4095L33.8583 26.4008L33.8656 26.3923C35.6914 24.2622 37.8017 22.6554 40.1985 21.6118C42.5975 20.5411 45.0895 20 47.6614 20C50.8001 20 53.605 20.5722 56.0247 21.7792C58.3149 22.876 60.2556 24.2197 61.8126 25.8286L62.8493 26.8999L55.2887 35.5406L54.0653 34.2451C53.4307 33.5733 52.5732 32.9563 51.4514 32.4162L51.4298 32.4058L51.4085 32.3947C50.355 31.8485 49.3221 31.5938 48.2932 31.5938C47.2903 31.5938 46.3644 31.7853 45.4993 32.1614C44.7279 32.4968 43.9806 33.09 43.2746 34.0299C42.6291 34.9049 42.0453 36.1385 41.5657 37.7953C41.3844 38.4213 41.2295 39.1112 41.1024 39.8668C41.6059 39.5313 42.1233 39.2364 42.6548 38.9841C43.5357 38.5209 44.435 38.1742 45.3514 37.9544C46.2547 37.6923 47.1442 37.55 48.0124 37.55C50.0873 37.55 52.0251 37.8535 53.8096 38.4823C55.6471 39.1133 57.2525 40.0698 58.5998 41.36C60.0165 42.6713 61.0809 44.315 61.8126 46.2485C62.5526 48.2045 62.9002 50.4429 62.9002 52.9292C62.9002 55.4534 62.4706 57.7623 61.5718 59.8243C60.6982 61.8286 59.5066 63.572 57.9932 65.0358C56.5158 66.5104 54.756 67.6339 52.7357 68.411L52.725 68.4151L52.7143 68.4191C50.7457 69.1443 48.6596 69.5018 46.468 69.5018C44.0978 69.5018 41.7839 69.0369 39.5366 68.1176L39.5305 68.1151ZM57.4894 42.5396C56.3194 41.4164 54.9154 40.574 53.2774 40.0124C51.6862 39.4508 49.9312 39.17 48.0124 39.17C47.3104 39.17 46.5616 39.287 45.766 39.521C44.9704 39.7082 44.1748 40.0124 43.3792 40.4336C42.5836 40.808 41.8114 41.2994 41.0626 41.9078C40.9828 41.9677 40.904 42.0286 40.8263 42.0906C40.1751 42.6102 39.5988 43.2044 39.097 43.8734C39.1302 42.9597 39.19 42.0963 39.2763 41.2828C39.4331 39.8046 39.6775 38.4919 40.0096 37.3448C40.5244 35.5664 41.1796 34.139 41.9752 33.0626C42.8176 31.9394 43.777 31.1438 44.8534 30.6758C45.9298 30.2078 47.0764 29.9738 48.2932 29.9738C49.6036 29.9738 50.8906 30.3014 52.1542 30.9566C52.8483 31.2908 53.4718 31.6602 54.0247 32.065C54.4783 32.3972 54.8844 32.7531 55.243 33.1328L60.6484 26.9552C59.2444 25.5044 57.466 24.2642 55.3132 23.2346C53.1604 22.1582 50.6098 21.62 47.6614 21.62C45.3214 21.62 43.0516 22.1114 40.852 23.0942C38.6992 24.0302 36.7804 25.481 35.0956 27.4466C33.4576 29.4122 32.1238 31.916 31.0942 34.958C30.1114 38 29.62 41.6036 29.62 45.7688C29.62 49.7 30.088 53.0696 31.024 55.8776C31.96 58.6388 33.2002 60.9086 34.7446 62.687C36.3358 64.4654 38.1376 65.7758 40.15 66.6182C42.2092 67.4606 44.3152 67.8818 46.468 67.8818C48.4804 67.8818 50.3758 67.5542 52.1542 66.899C53.9794 66.197 55.5472 65.1908 56.8576 63.8804C58.2148 62.57 59.2912 61.0022 60.0868 59.177C60.8824 57.3518 61.2802 55.2692 61.2802 52.9292C61.2802 50.5892 60.9526 48.5534 60.2974 46.8218C59.6422 45.0902 58.7062 43.6628 57.4894 42.5396ZM49.019 57.3541L49.0199 57.3531C49.7279 56.6157 50.2534 55.264 50.2534 52.9292C50.2534 50.7245 49.725 49.6674 49.1515 49.1895L49.1234 49.166L49.0963 49.1414C48.3646 48.4733 47.3946 48.0908 46.0468 48.0908C45.213 48.0908 44.2962 48.3385 43.2761 48.927L43.2672 48.9322L43.2581 48.9372C42.5119 49.3551 41.745 50.0877 40.9937 51.2455C41.2119 52.6762 41.5086 53.8241 41.8647 54.7144C42.2848 55.7645 42.7426 56.5644 43.2164 57.1527C43.6795 57.6829 44.1342 58.0301 44.571 58.2443C45.1193 58.4422 45.6787 58.5398 46.2574 58.5398C47.3566 58.5398 48.2456 58.1611 49.019 57.3541ZM43.9408 59.7386C43.2388 59.411 42.5836 58.8962 41.9752 58.1942C41.3668 57.4454 40.8286 56.486 40.3606 55.316C39.8926 54.146 39.5416 52.6718 39.3076 50.8934C40.2436 49.3022 41.2966 48.179 42.4666 47.5238C43.6834 46.8218 44.8768 46.4708 46.0468 46.4708C47.7316 46.4708 49.1122 46.9622 50.1886 47.945C51.3118 48.881 51.8734 50.5424 51.8734 52.9292C51.8734 55.4564 51.3118 57.305 50.1886 58.475C49.1122 59.5982 47.8018 60.1598 46.2574 60.1598C45.4618 60.1598 44.6896 60.0194 43.9408 59.7386Z" fill="white"/>
</g>
<defs>
<linearGradient id="paint0_linear_302_29" x1="-18.9356" y1="21.0484" x2="114.201" y2="26.2517" gradientUnits="userSpaceOnUse">
<stop stop-color="#010052"/>
<stop offset="1" stop-color="#5957FF"/>
</linearGradient>
<clipPath id="clip0_302_29">
<rect width="90" height="90" fill="white"/>
</clipPath>
</defs>
</svg>
